Coordinates
version=1
nRows=24
nColumns=38
inDegrees=no

Units are S.I. units (second, meters, Newtons, ...)
If the header above contains a line with 'inDegrees', this indicates whether rotational values are in degrees (yes) or radians (no).

endheader
time	pelvis_tilt	pelvis_list	pelvis_rotation	pelvis_tx	pelvis_ty	pelvis_tz	hip_flexion_r	hip_adduction_r	hip_rotation_r	knee_angle_r	ankle_angle_r	subtalar_angle_r	mtp_angle_r	hip_flexion_l	hip_adduction_l	hip_rotation_l	knee_angle_l	ankle_angle_l	subtalar_angle_l	mtp_angle_l	lumbar_extension	lumbar_bending	lumbar_rotation	arm_flex_r	arm_add_r	arm_rot_r	elbow_flex_r	pro_sup_r	wrist_flex_r	wrist_dev_r	arm_flex_l	arm_add_l	arm_rot_l	elbow_flex_l	pro_sup_l	wrist_flex_l	wrist_dev_l
1.64	-3.02821	1.50444	-1.6049	0.594906	1.60471	1.03948	0.000590708	-0.128305	0.0887464	0.955028	-0.414045	0	0	0.105892	0.00857731	-0.476759	0.389725	-0.0557744	0	0	-0.533012	-0.00184184	-0.00196653	-0.121969	-0.405631	0.249134	0.914823	1.05338	0	0	-0.150261	-0.518254	0.0735669	0.872454	1.2862	0	0
1.65	-3.08372	1.50242	-1.5432	0.592282	1.61676	1.04144	0.0138716	-0.126704	0.0803579	0.985052	-0.320766	0	0	0.0877035	0.0067544	-0.476789	0.383672	-0.0544334	0	0	-0.532801	0.00768139	-0.00537374	-0.125736	-0.409557	0.239456	0.922474	1.06426	0	0	-0.147254	-0.521477	0.0771241	0.881555	1.28871	0	0
1.66	3.12211	1.5006	-1.46126	0.589675	1.62852	1.04384	0.042267	-0.120449	0.0747222	0.980944	-0.322993	0	0	0.0698263	0.00407116	-0.473477	0.374952	-0.0552151	0	0	-0.532677	0.0174381	-0.0104322	-0.121611	-0.414837	0.241045	0.923324	1.07161	0	0	-0.148107	-0.522417	0.0717266	0.892987	1.2927	0	0
1.67	3.06935	1.49722	-1.4041	0.587271	1.64038	1.04618	0.0612714	-0.115272	0.0695123	0.986716	-0.298821	0	0	0.0496948	0.00260338	-0.469384	0.364277	-0.0568629	0	0	-0.533805	0.0257551	-0.0148619	-0.119865	-0.419252	0.239676	0.926136	1.07824	0	0	-0.14855	-0.524785	0.0680032	0.905609	1.29605	0	0
1.68	3.03658	1.4941	-1.36827	0.585085	1.65223	1.04837	0.0775344	-0.112049	0.0621131	0.984016	-0.259329	0	0	0.0292144	0.00243688	-0.465008	0.351967	-0.0594968	0	0	-0.534923	0.032048	-0.0180852	-0.119432	-0.422945	0.236772	0.92989	1.08654	0	0	-0.148525	-0.52831	0.0657312	0.919113	1.29876	0	0
1.69	2.81236	1.45537	-1.12916	0.579634	1.663	1.05727	0.0341907	-0.197012	-0.245041	0.933074	-0.309582	0	0	-0.0228925	-0.0262014	-0.446821	0.328158	-0.0744218	0	0	-0.578039	0.07765	-0.0139693	-0.104387	-0.440528	0.239826	0.931719	1.08978	0	0	-0.127291	-0.512776	0.0594833	0.920829	1.31405	0	0
1.7	2.80002	1.45495	-1.11546	0.57784	1.67467	1.05887	0.0660203	-0.202423	-0.261223	0.955075	-0.297055	0	0	-0.0400596	-0.0260179	-0.446228	0.316677	-0.0769392	0	0	-0.576247	0.0811342	-0.0152984	-0.105812	-0.443663	0.236838	0.936602	1.0932	0	0	-0.126637	-0.517474	0.0579868	0.935667	1.31615	0	0
1.71	2.81204	1.44723	-1.11878	0.575591	1.68693	1.06087	0.060167	-0.228832	-0.348816	0.939521	-0.280127	0	0	-0.0665965	-0.0280259	-0.444894	0.304819	-0.0804568	0	0	-0.580751	0.0883281	-0.0223063	-0.109054	-0.445189	0.232066	0.942465	1.09933	0	0	-0.127594	-0.524693	0.0572773	0.952987	1.31713	0	0
1.72	2.8077	1.43742	-1.10467	0.57313	1.69872	1.06327	0.0763596	-0.209752	-0.339132	0.941771	-0.229978	0	0	-0.0941444	-0.0326	-0.440171	0.291263	-0.0879045	0	0	-0.589343	0.0994411	-0.0263813	-0.113278	-0.446518	0.22143	0.950368	1.10905	0	0	-0.122909	-0.531434	0.0615868	0.968703	1.31246	0	0
1.73	2.80885	1.42808	-1.09378	0.570621	1.71068	1.06539	0.0785252	-0.20895	-0.37972	0.927325	-0.211188	0	0	-0.121312	-0.0376646	-0.43719	0.278398	-0.0921932	0	0	-0.596098	0.110415	-0.0310102	-0.118163	-0.450786	0.218686	0.958232	1.1038	0	0	-0.116492	-0.539055	0.0683917	0.982753	1.30993	0	0
1.74	2.79319	1.42336	-1.06819	0.568419	1.72226	1.06715	0.0851356	-0.20821	-0.425192	0.907116	-0.201154	0	0	-0.142108	-0.0427281	-0.433678	0.265577	-0.0966813	0	0	-0.598114	0.119363	-0.0390747	-0.116087	-0.450707	0.219175	0.958185	1.11479	0	0	-0.116286	-0.54323	0.061006	0.998546	1.31454	0	0
1.75	2.77876	1.41897	-1.04297	0.566246	1.73372	1.06876	0.0912155	-0.205474	-0.472931	0.883335	-0.189056	0	0	-0.162184	-0.0480201	-0.429258	0.252678	-0.102486	0	0	-0.600306	0.128571	-0.0466681	-0.115018	-0.45005	0.217916	0.958773	1.12293	0	0	-0.113951	-0.54762	0.0554597	1.01339	1.31934	0	0
1.76	2.76853	1.41457	-1.02091	0.564053	1.7452	1.07017	0.0974939	-0.201635	-0.523269	0.858487	-0.178406	0	0	-0.18222	-0.053408	-0.424983	0.240063	-0.108559	0	0	-0.602526	0.137927	-0.0543809	-0.114847	-0.448802	0.21545	0.959317	1.12956	0	0	-0.110483	-0.551953	0.050708	1.02743	1.32417	0	0
1.77	2.75926	1.41151	-1.0004	0.562039	1.75667	1.07125	0.105377	-0.198837	-0.576172	0.83207	-0.172211	0	0	-0.200837	-0.0583305	-0.421343	0.227861	-0.115049	0	0	-0.603655	0.146159	-0.061294	-0.115095	-0.446932	0.212702	0.959267	1.13581	0	0	-0.105974	-0.556616	0.0476419	1.04059	1.32847	0	0
1.78	2.75197	1.40951	-0.982575	0.560097	1.76813	1.07204	0.113806	-0.195125	-0.622615	0.80137	-0.169245	0	0	-0.218331	-0.0624721	-0.41829	0.216308	-0.121361	0	0	-0.604104	0.1532	-0.0674985	-0.115843	-0.444713	0.209548	0.959242	1.1412	0	0	-0.100542	-0.56152	0.0463839	1.05287	1.33157	0	0
1.79	2.74693	1.40766	-0.967075	0.558119	1.77965	1.07264	0.121316	-0.190294	-0.662557	0.766365	-0.170078	0	0	-0.2354	-0.0665523	-0.415557	0.205902	-0.127011	0	0	-0.604793	0.159894	-0.0730273	-0.117196	-0.442457	0.205796	0.95939	1.14521	0	0	-0.0942818	-0.565649	0.0448235	1.06462	1.33461	0	0
1.8	2.74608	1.40631	-0.956246	0.556238	1.79112	1.07294	0.128637	-0.187956	-0.696051	0.727718	-0.184244	0	0	-0.252058	-0.0698251	-0.412182	0.196091	-0.134324	0	0	-0.606251	0.165604	-0.075791	-0.12064	-0.442009	0.201799	0.962129	1.14217	0	0	-0.0844581	-0.570718	0.0481734	1.07548	1.33559	0	0
1.81	2.74417	1.40589	-0.946394	0.554485	1.80263	1.07296	0.139043	-0.179734	-0.698132	0.684544	-0.187377	0	0	-0.267309	-0.0726661	-0.411598	0.188251	-0.136618	0	0	-0.606748	0.1702	-0.0750081	-0.125298	-0.44381	0.199612	0.965625	1.13161	0	0	-0.0708382	-0.576402	0.0584328	1.08357	1.33355	0	0
1.82	2.7391	1.40635	-0.932509	0.552691	1.81422	1.07274	0.147703	-0.166725	-0.698132	0.628472	-0.203734	0	0	-0.281308	-0.0751866	-0.405335	0.179766	-0.137841	0	0	-0.606083	0.173588	-0.0882486	-0.118178	-0.432362	0.192123	0.95569	1.17406	0	0	-0.0778453	-0.57528	0.0328168	1.10044	1.34924	0	0
1.83	2.73456	1.41011	-0.920995	0.550987	1.82582	1.07178	0.158504	-0.160689	-0.698132	0.573758	-0.209726	0	0	-0.291438	-0.0755417	-0.403467	0.174268	-0.136809	0	0	-0.602051	0.175213	-0.0919912	-0.11923	-0.43109	0.191191	0.954413	1.1751	0	0	-0.0711066	-0.578505	0.0325517	1.10992	1.35153	0	0
1.84	2.72587	1.41378	-0.905399	0.549184	1.83738	1.07069	0.172169	-0.145367	-0.698132	0.519802	-0.209328	0	0	-0.300559	-0.0766646	-0.402347	0.170254	-0.13509	0	0	-0.598503	0.177658	-0.0953136	-0.119545	-0.430167	0.190115	0.952715	1.17558	0	0	-0.0638331	-0.580938	0.032655	1.11867	1.35357	0	0
1.85	2.72217	1.41924	-0.894524	0.547331	1.84902	1.06913	0.182726	-0.134683	-0.698132	0.460181	-0.208119	0	0	-0.308062	-0.0764111	-0.401851	0.168189	-0.134004	0	0	-0.593507	0.178639	-0.0995469	-0.120577	-0.429431	0.189248	0.951448	1.17611	0	0	-0.0568395	-0.583357	0.0333023	1.12691	1.3549	0	0
1.86	2.71901	1.4264	-0.886298	0.545637	1.86075	1.06722	0.190824	-0.116914	-0.657846	0.383214	-0.198116	0	0	-0.314278	-0.0744446	-0.402887	0.167016	-0.132629	0	0	-0.587255	0.177376	-0.102859	-0.121201	-0.428224	0.188273	0.948981	1.17598	0	0	-0.0504313	-0.585586	0.0339727	1.13468	1.3573	0	0
1.87	2.72215	1.43439	-0.885054	0.543982	1.87268	1.06497	0.196202	-0.100493	-0.603446	0.305634	-0.184851	0	0	-0.320214	-0.0713549	-0.404542	0.167157	-0.131154	0	0	-0.580657	0.1748	-0.105656	-0.123237	-0.426682	0.185327	0.947396	1.17455	0	0	-0.0438718	-0.58817	0.0365984	1.14187	1.35909	0	0
